<mxfile host="app.diagrams.net" modified="2024-03-02T09:43:07.828Z" agent="Mozilla/5.0 (Macintosh; Intel Mac OS X 10_15_7) AppleWebKit/605.1.15 (KHTML, like Gecko) Version/17.2.1 Safari/605.1.15" version="24.0.0" etag="AjicWgYtiPHOgHVKkUs5" type="github">
  <diagram name="Page-1" id="6Ek6Z_23AVpzAQcCcAdv">
    <mxGraphModel>
      <root>
        <mxCell id="0" />
        <mxCell id="1" parent="0" />
      </root>
    </mxGraphModel>
  </diagram>
</mxfile>
